<?xml version="1.0" encoding="UTF-8"?>
<!DOCTYPE svg PUBLIC "-//W3C//DTD SVG 1.1//EN" "http://www.w3.org/Graphics/SVG/1.1/DTD/svg11.dtd">
<svg version="1.2" width="150mm" height="150mm" viewBox="0 0 15000 15000" preserveAspectRatio="xMidYMid" fill-rule="evenodd" stroke-width="28.222" stroke-linejoin="round" xmlns="http://www.w3.org/2000/svg" xmlns:ooo="http://xml.openoffice.org/svg/export" xmlns:xlink="http://www.w3.org/1999/xlink" xmlns:presentation="http://sun.com/xmlns/staroffice/presentation" xmlns:smil="http://www.w3.org/2001/SMIL20/" xmlns:anim="urn:oasis:names:tc:opendocument:xmlns:animation:1.0" xml:space="preserve">
 <defs class="ClipPathGroup">
  <clipPath id="presentation_clip_path" clipPathUnits="userSpaceOnUse">
   <rect x="0" y="0" width="15000" height="15000"/>
  </clipPath>
  <clipPath id="presentation_clip_path_shrink" clipPathUnits="userSpaceOnUse">
   <rect x="15" y="15" width="14970" height="14970"/>
  </clipPath>
 </defs>
 <defs class="TextShapeIndex">
  <g ooo:slide="id1" ooo:id-list="id3 id4 id5 id6 id7"/>
 </defs>
 <defs class="EmbeddedBulletChars">
  <g id="bullet-char-template-57356" transform="scale(0.00048828125,-0.00048828125)">
   <path d="M 580,1141 L 1163,571 580,0 -4,571 580,1141 Z"/>
  </g>
  <g id="bullet-char-template-57354" transform="scale(0.00048828125,-0.00048828125)">
   <path d="M 8,1128 L 1137,1128 1137,0 8,0 8,1128 Z"/>
  </g>
  <g id="bullet-char-template-10146" transform="scale(0.00048828125,-0.00048828125)">
   <path d="M 174,0 L 602,739 174,1481 1456,739 174,0 Z M 1358,739 L 309,1346 659,739 1358,739 Z"/>
  </g>
  <g id="bullet-char-template-10132" transform="scale(0.00048828125,-0.00048828125)">
   <path d="M 2015,739 L 1276,0 717,0 1260,543 174,543 174,936 1260,936 717,1481 1274,1481 2015,739 Z"/>
  </g>
  <g id="bullet-char-template-10007" transform="scale(0.00048828125,-0.00048828125)">
   <path d="M 0,-2 C -7,14 -16,27 -25,37 L 356,567 C 262,823 215,952 215,954 215,979 228,992 255,992 264,992 276,990 289,987 310,991 331,999 354,1012 L 381,999 492,748 772,1049 836,1024 860,1049 C 881,1039 901,1025 922,1006 886,937 835,863 770,784 769,783 710,716 594,584 L 774,223 C 774,196 753,168 711,139 L 727,119 C 717,90 699,76 672,76 641,76 570,178 457,381 L 164,-76 C 142,-110 111,-127 72,-127 30,-127 9,-110 8,-76 1,-67 -2,-52 -2,-32 -2,-23 -1,-13 0,-2 Z"/>
  </g>
  <g id="bullet-char-template-10004" transform="scale(0.00048828125,-0.00048828125)">
   <path d="M 285,-33 C 182,-33 111,30 74,156 52,228 41,333 41,471 41,549 55,616 82,672 116,743 169,778 240,778 293,778 328,747 346,684 L 369,508 C 377,444 397,411 428,410 L 1163,1116 C 1174,1127 1196,1133 1229,1133 1271,1133 1292,1118 1292,1087 L 1292,965 C 1292,929 1282,901 1262,881 L 442,47 C 390,-6 338,-33 285,-33 Z"/>
  </g>
  <g id="bullet-char-template-9679" transform="scale(0.00048828125,-0.00048828125)">
   <path d="M 813,0 C 632,0 489,54 383,161 276,268 223,411 223,592 223,773 276,916 383,1023 489,1130 632,1184 813,1184 992,1184 1136,1130 1245,1023 1353,916 1407,772 1407,592 1407,412 1353,268 1245,161 1136,54 992,0 813,0 Z"/>
  </g>
  <g id="bullet-char-template-8226" transform="scale(0.00048828125,-0.00048828125)">
   <path d="M 346,457 C 273,457 209,483 155,535 101,586 74,649 74,723 74,796 101,859 155,911 209,963 273,989 346,989 419,989 480,963 531,910 582,859 608,796 608,723 608,648 583,586 532,535 482,483 420,457 346,457 Z"/>
  </g>
  <g id="bullet-char-template-8211" transform="scale(0.00048828125,-0.00048828125)">
   <path d="M -4,459 L 1135,459 1135,606 -4,606 -4,459 Z"/>
  </g>
  <g id="bullet-char-template-61548" transform="scale(0.00048828125,-0.00048828125)">
   <path d="M 173,740 C 173,903 231,1043 346,1159 462,1274 601,1332 765,1332 928,1332 1067,1274 1183,1159 1299,1043 1357,903 1357,740 1357,577 1299,437 1183,322 1067,206 928,148 765,148 601,148 462,206 346,322 231,437 173,577 173,740 Z"/>
  </g>
 </defs>
 <g>
  <g id="id2" class="Master_Slide">
   <g id="bg-id2" class="Background"/>
   <g id="bo-id2" class="BackgroundObjects"/>
  </g>
 </g>
 <g class="SlideGroup">
  <g>
   <g id="container-id1">
    <g id="id1" class="Slide" clip-path="url(#presentation_clip_path)">
     <g class="Page">
      <g class="com.sun.star.drawing.CustomShape">
       <g id="id3">
        <rect class="BoundingBox" stroke="none" fill="none" x="3894" y="1893" width="7214" height="11216"/>
        <path fill="none" stroke="rgb(0,0,0)" stroke-width="212" stroke-linejoin="round" d="M 5166,2000 L 5167,2000 C 4962,2000 4761,2054 4583,2156 4406,2259 4259,2406 4156,2583 4054,2761 4000,2962 4000,3167 L 4000,11834 4000,11834 C 4000,12039 4054,12240 4156,12418 4259,12595 4406,12742 4583,12845 4761,12947 4962,13001 5167,13001 L 9834,13001 9834,13001 C 10039,13001 10240,12947 10418,12845 10595,12742 10742,12595 10845,12418 10947,12240 11001,12039 11001,11834 L 11001,3166 11001,3167 11001,3167 C 11001,2962 10947,2761 10845,2583 10742,2406 10595,2259 10418,2156 10240,2054 10039,2000 9834,2000 L 5166,2000 Z"/>
       </g>
      </g>
      <g class="com.sun.star.drawing.PolyPolygonShape">
       <g id="id4">
        <rect class="BoundingBox" stroke="none" fill="none" x="3959" y="1959" width="7084" height="1250"/>
        <path fill="rgb(0,0,0)" stroke="none" d="M 5166,2000 L 5167,2000 5090,2003 5014,2010 4939,2022 4865,2040 4792,2062 4721,2089 4651,2120 4583,2156 4518,2197 4456,2241 4397,2290 4342,2342 4290,2397 4241,2456 4197,2518 4156,2583 4120,2651 4089,2721 4062,2792 4040,2865 4022,2939 4010,3014 4003,3090 4000,3167 11001,3166 11001,3167 11001,3167 10998,3090 10991,3014 10979,2939 10961,2865 10939,2792 10912,2721 10881,2651 10845,2583 10804,2518 10760,2456 10711,2397 10659,2342 10604,2290 10545,2241 10483,2197 10418,2156 10350,2120 10280,2089 10209,2062 10136,2040 10062,2022 9987,2010 9911,2003 9834,2000 5166,2000 Z"/>
        <path fill="none" stroke="rgb(0,0,0)" stroke-width="81" stroke-linejoin="round" d="M 5166,2000 L 5167,2000 5090,2003 5014,2010 4939,2022 4865,2040 4792,2062 4721,2089 4651,2120 4583,2156 4518,2197 4456,2241 4397,2290 4342,2342 4290,2397 4241,2456 4197,2518 4156,2583 4120,2651 4089,2721 4062,2792 4040,2865 4022,2939 4010,3014 4003,3090 4000,3167 11001,3166 11001,3167 11001,3167 10998,3090 10991,3014 10979,2939 10961,2865 10939,2792 10912,2721 10881,2651 10845,2583 10804,2518 10760,2456 10711,2397 10659,2342 10604,2290 10545,2241 10483,2197 10418,2156 10350,2120 10280,2089 10209,2062 10136,2040 10062,2022 9987,2010 9911,2003 9834,2000 5166,2000 Z"/>
       </g>
      </g>
      <g class="com.sun.star.drawing.PolyPolygonShape">
       <g id="id5">
        <rect class="BoundingBox" stroke="none" fill="none" x="3959" y="11792" width="7084" height="1250"/>
        <path fill="rgb(0,0,0)" stroke="none" d="M 4000,11833 L 4000,11833 4003,11910 4010,11986 4022,12061 4040,12135 4062,12208 4089,12279 4120,12349 4156,12417 4197,12482 4241,12544 4290,12603 4342,12658 4397,12710 4456,12759 4518,12803 4583,12844 4651,12880 4721,12911 4792,12938 4865,12960 4939,12978 5014,12990 5090,12997 5167,13000 9834,13000 9834,13000 9911,12997 9987,12990 10062,12978 10136,12960 10209,12938 10280,12911 10350,12880 10418,12844 10483,12803 10545,12759 10604,12710 10659,12658 10711,12603 10760,12544 10804,12482 10845,12417 10881,12349 10912,12279 10939,12208 10961,12135 10979,12061 10991,11986 10998,11910 11001,11833 4000,11833 Z"/>
        <path fill="none" stroke="rgb(0,0,0)" stroke-width="81" stroke-linejoin="round" d="M 4000,11833 L 4000,11833 4003,11910 4010,11986 4022,12061 4040,12135 4062,12208 4089,12279 4120,12349 4156,12417 4197,12482 4241,12544 4290,12603 4342,12658 4397,12710 4456,12759 4518,12803 4583,12844 4651,12880 4721,12911 4792,12938 4865,12960 4939,12978 5014,12990 5090,12997 5167,13000 9834,13000 9834,13000 9911,12997 9987,12990 10062,12978 10136,12960 10209,12938 10280,12911 10350,12880 10418,12844 10483,12803 10545,12759 10604,12710 10659,12658 10711,12603 10760,12544 10804,12482 10845,12417 10881,12349 10912,12279 10939,12208 10961,12135 10979,12061 10991,11986 10998,11910 11001,11833 4000,11833 Z"/>
       </g>
      </g>
      <g class="com.sun.star.drawing.PolyPolygonShape">
       <g id="id6">
        <rect class="BoundingBox" stroke="none" fill="none" x="5432" y="5708" width="2137" height="3335"/>
        <path fill="rgb(0,0,0)" stroke="none" d="M 5568,9042 L 5500,9000 5432,8958 7432,5708 7500,5750 7568,5792 5568,9042 Z"/>
       </g>
      </g>
      <g class="com.sun.star.drawing.PolyPolygonShape">
       <g id="id7">
        <rect class="BoundingBox" stroke="none" fill="none" x="7335" y="5472" width="2102" height="3629"/>
        <path fill="rgb(0,0,0)" stroke="none" d="M 7335,5875 L 7375,5800 7580,5472 9436,8900 9250,9000 9064,9100 7335,5875 Z"/>
       </g>
      </g>
     </g>
    </g>
   </g>
  </g>
 </g>
</svg>